<svg width="18" height="18" viewBox="0 0 18 18" fill="none" xmlns="http://www.w3.org/2000/svg">
<path fill-rule="evenodd" clip-rule="evenodd" d="M0.645752 2.15641C0.645752 1.78822 0.944229 1.48975 1.31242 1.48975H3.91987C4.23762 1.48975 4.51121 1.714 4.57357 2.02557L5.11867 4.74906H15.6534C15.8521 4.74906 16.0404 4.83767 16.167 4.99076C16.2937 5.14384 16.3455 5.34544 16.3082 5.54061L15.2653 11.0097L15.2643 11.0147L15.2643 11.0147C15.1742 11.4683 14.9275 11.8757 14.5672 12.1657C14.2088 12.4542 13.7609 12.6082 13.301 12.601H6.97627C6.5164 12.6082 6.06842 12.4542 5.71003 12.1657C5.34996 11.8759 5.10325 11.4686 5.01307 11.0153L5.01296 11.0147L3.9242 5.57495C3.91972 5.5567 3.916 5.53816 3.91307 5.51936L3.37341 2.82308H1.31242C0.944229 2.82308 0.645752 2.5246 0.645752 2.15641ZM6.52837 13.8757C5.80043 13.8757 5.21031 14.4658 5.21031 15.1938C5.21031 15.9217 5.80043 16.5118 6.52837 16.5118C7.25632 16.5118 7.84644 15.9217 7.84644 15.1938C7.84644 14.4658 7.25632 13.8757 6.52837 13.8757ZM13.6984 13.8757C12.9704 13.8757 12.3803 14.4658 12.3803 15.1938C12.3803 15.9217 12.9704 16.5118 13.6984 16.5118C14.4263 16.5118 15.0164 15.9217 15.0164 15.1938C15.0164 14.4658 14.4263 13.8757 13.6984 13.8757Z" fill="#2D3440"/>
</svg>
